<svg width="628" height="51" viewBox="0 0 628 51" fill="none" xmlns="http://www.w3.org/2000/svg">
<path d="M29.8287 51H0.668719V0.599997H9.02072V42.648H29.8287V51ZM70.988 51H34.7V0.599997H70.988V8.952H43.052V20.184H56.372V28.536H43.052V42.648H70.988V51ZM103.32 51H83.6639L75.3839 42.504V36.96H83.7359V42.648H103.32V29.976H83.7359L75.3839 21.624V9.096L83.7359 0.599997H103.392L111.672 9.096V14.64H103.32V8.952H83.7359V21.624H103.32L111.672 29.976V42.504L103.32 51ZM147.891 40.344L160.491 0.599997H169.347L152.427 51H143.355L126.435 0.599997H135.291L147.891 40.344ZM181.779 51H173.427V0.599997H181.779V51ZM226.097 51H189.809V0.599997H226.097V8.952H198.161V20.184H211.481V28.536H198.161V42.648H226.097V51ZM258.429 51H238.773L230.493 42.504V36.96H238.845V42.648H258.429V29.976H238.845L230.493 21.624V9.096L238.845 0.599997H258.501L266.781 9.096V14.64H258.429V8.952H238.845V21.624H258.429L266.781 29.976V42.504L258.429 51ZM295.755 51H287.403V0.599997H315.339L323.691 8.952V22.992L315.339 31.344H295.755V51ZM295.755 8.952V22.992H315.339V8.952H295.755ZM356.882 51H337.226L328.874 42.504V8.952L337.226 0.599997H356.882L365.162 8.952V42.504L356.882 51ZM337.226 8.952V42.648H356.81V8.952H337.226ZM399.406 51H379.75L371.47 42.504V36.96H379.822V42.648H399.406V29.976H379.822L371.47 21.624V9.096L379.822 0.599997H399.478L407.758 9.096V14.64H399.406V8.952H379.822V21.624H399.406L407.758 29.976V42.504L399.406 51ZM441.453 51H421.797L413.517 42.504V36.96H421.869V42.648H441.453V29.976H421.869L413.517 21.624V9.096L421.869 0.599997H441.525L449.805 9.096V14.64H441.453V8.952H421.869V21.624H441.453L449.805 29.976V42.504L441.453 51ZM465.068 51H456.716V0.599997H465.068V51ZM501.034 51H473.098V0.599997H501.034L509.386 8.952V20.184L503.77 25.8L509.386 31.416V42.648L501.034 51ZM481.45 8.952V21.624H501.034V8.952H481.45ZM481.45 29.976V42.648H501.034V29.976H481.45ZM545.641 51H516.481V0.599997H524.833V42.648H545.641V51ZM586.8 51H550.512V0.599997H586.8V8.952H558.864V20.184H572.184V28.536H558.864V42.648H586.8V51ZM619.132 51H599.476L591.196 42.504V36.96H599.548V42.648H619.132V29.976H599.548L591.196 21.624V9.096L599.548 0.599997H619.204L627.484 9.096V14.64H619.132V8.952H599.548V21.624H619.132L627.484 29.976V42.504L619.132 51Z" fill="white"/>
</svg>
